<svg version="1.1" id="Layer_1" xmlns="http://www.w3.org/2000/svg" xmlns:xlink="http://www.w3.org/1999/xlink" x="0px" y="0px"
	 width="100%" viewBox="0 0 2921 526" enable-background="new 0 0 2921 526" xml:space="preserve">
<path fill="#0D1118" opacity="1.000000" stroke="none" 
	d="
M2193.000000,527.000000 
	C1462.000122,527.000000 731.500183,527.000000 1.000196,527.000000 
	C1.000131,351.666779 1.000131,176.333557 1.000065,1.000243 
	C974.666443,1.000162 1948.332886,1.000162 2921.999512,1.000081 
	C2921.999512,176.333084 2921.999512,351.666168 2921.999756,526.999634 
	C2679.166748,527.000000 2436.333252,527.000000 2193.000000,527.000000 
M101.284988,309.917267 
	C101.183998,309.940247 101.083008,309.963257 100.725403,310.104218 
	C100.822350,310.076324 100.919296,310.048401 101.284988,309.917267 
M104.274544,307.898987 
	C104.177406,307.928192 104.080261,307.957367 103.720016,308.090027 
	C103.817253,308.064911 103.914482,308.039795 104.274544,307.898987 
M115.272339,295.911469 
	C115.178810,295.938843 115.085281,295.966217 114.736748,296.105927 
	C114.826904,296.073669 114.917053,296.041412 115.272339,295.911469 
M118.441437,293.787872 
	C118.708000,293.586273 118.897545,293.328125 119.402657,292.764221 
	C119.390381,292.426544 119.378113,292.088898 119.365837,291.751221 
	C119.239006,292.163727 119.112183,292.576202 118.546021,293.203308 
	C118.270569,293.401276 118.082680,293.662292 117.717827,294.090851 
	C117.815964,294.065857 117.914101,294.040863 118.441437,293.787872 
M134.289673,276.919708 
	C134.185974,276.940918 134.082260,276.962128 133.721985,277.103943 
	C133.821213,277.077515 133.920441,277.051117 134.289673,276.919708 
M137.276581,274.899750 
	C137.178375,274.928467 137.080185,274.957184 136.718658,275.090271 
	C136.816635,275.065460 136.914597,275.040680 137.276581,274.899750 
M142.281204,269.903442 
	C142.178085,269.928162 142.074966,269.952881 141.705032,270.087311 
	C141.809799,270.066437 141.914566,270.045563 142.281204,269.903442 
M151.444244,260.793762 
	C151.713333,260.596771 151.906342,260.342102 152.416367,259.775879 
	C152.403412,259.431000 152.390457,259.086151 152.377533,258.741272 
	C152.240921,259.152527 152.104294,259.563782 151.535919,260.199615 
	C151.264084,260.399780 151.078827,260.661285 150.717514,261.089661 
	C150.816269,261.065582 150.915039,261.041504 151.444244,260.793762 
M170.263245,241.901199 
	C170.172409,241.931747 170.081558,241.962296 169.723969,242.095596 
	C169.818298,242.066742 169.912628,242.037872 170.263245,241.901199 
M87.306595,323.926086 
	C87.193024,323.941864 87.079453,323.957642 86.708473,324.101776 
	C86.816315,324.081116 86.924149,324.060455 87.306595,323.926086 
M47.438530,332.783661 
	C47.711655,332.586792 47.904095,332.329559 48.443604,331.784271 
	C48.710743,331.583740 48.898724,331.325562 49.679211,330.923065 
	C50.461601,329.955383 51.243992,328.987671 52.448933,327.785553 
	C52.710766,327.580688 52.896397,327.321289 53.686371,326.925201 
	C54.801781,325.627930 55.917194,324.330658 57.795105,322.922272 
	C61.954578,322.202515 66.114052,321.482788 69.916138,320.824890 
	C65.237518,317.768951 60.454769,318.427826 56.288177,323.054626 
	C55.189453,324.367767 54.090729,325.680878 52.559032,327.211060 
	C52.289639,327.407196 52.096428,327.661255 51.305771,328.055695 
	C50.533749,329.034515 49.761726,330.013336 48.556053,331.210602 
	C48.287060,331.409821 48.097538,331.667511 47.553482,332.208313 
	C47.283409,332.410919 47.097168,332.673126 46.497826,332.990570 
	C46.497826,332.990570 46.000916,333.003662 45.414700,333.298431 
	C44.603050,334.525360 43.791397,335.752319 42.299423,337.062286 
	C41.192703,338.367737 40.085983,339.673187 38.293579,341.057037 
	C34.855400,344.697968 31.417219,348.338867 27.309807,352.068909 
	C26.533188,353.040802 25.756567,354.012726 24.548199,355.204010 
	C24.279539,355.402527 24.090361,355.659546 23.298225,356.059631 
	C21.857101,357.700073 20.415979,359.340485 18.550953,361.212738 
	C18.285604,361.413910 18.098560,361.671875 17.307396,362.066956 
	C16.204363,363.377563 15.101330,364.688171 13.328544,366.073029 
	C12.511640,366.931061 11.694736,367.789093 10.877831,368.647156 
	C11.293901,368.948975 11.709972,369.250824 12.126043,369.552673 
	C12.751224,368.368866 13.376404,367.185028 14.682785,365.919495 
	C15.792819,364.616211 16.902853,363.312927 18.440184,361.784882 
	C18.706293,361.587097 18.899162,361.333588 19.699812,360.934814 
	C21.140905,359.295746 22.581999,357.656647 24.448092,355.787933 
	C24.714710,355.588715 24.903526,355.332245 25.683821,354.924377 
	C26.462084,353.956024 27.240349,352.987671 28.702921,351.934113 
	C32.141914,348.295898 35.580906,344.657684 39.694447,340.921051 
	C40.802780,339.620148 41.911114,338.319214 43.685146,336.926544 
	C44.460167,335.960114 45.235184,334.993713 46.435665,333.787048 
	C46.699951,333.580780 46.889263,333.320038 47.438530,332.783661 
M231.898926,90.739395 
	C231.819046,90.696930 231.739151,90.654472 231.659271,90.612007 
	C231.767395,90.745590 231.875504,90.879166 232.197693,91.449860 
	C232.395370,91.720612 232.652084,91.912346 233.060089,92.719376 
	C233.717407,94.197853 234.374710,95.676338 234.176697,97.133583 
	C231.670609,97.922050 228.779510,98.172165 226.748367,99.624748 
	C223.676804,101.821404 221.150101,104.803253 218.491333,107.547798 
	C215.291245,110.851135 215.145386,113.923317 218.689621,117.408279 
	C231.371399,129.877975 243.862320,142.541733 256.427338,155.130173 
	C280.726807,179.474930 305.009857,203.836121 329.335754,228.154465 
	C340.606018,239.421234 340.644318,239.382889 351.657166,227.923233 
	C357.489441,221.854355 357.512665,221.562958 352.871155,213.702179 
	C352.545013,212.818756 352.439545,211.740158 351.858002,211.082565 
	C346.846222,205.415085 341.956573,199.617203 336.634033,194.251480 
	C324.913330,182.435669 312.913208,170.897583 301.120087,159.152832 
	C293.028046,151.093948 285.128296,142.842392 277.077972,134.741165 
	C266.551361,124.147964 256.016785,113.561378 245.369003,103.090553 
	C241.423660,99.210777 237.148102,95.666794 232.790070,91.544922 
	C232.587234,91.279480 232.327744,91.092766 231.898926,90.739395 
M155.682297,256.070587 
	C155.803253,256.058960 155.924194,256.047363 156.302887,255.901581 
	C156.188095,255.917282 156.073318,255.932983 155.682297,256.070587 
M145.525589,266.005646 
	C145.263901,266.129456 145.002228,266.253265 144.740555,266.377075 
	C145.163742,266.253906 145.586945,266.130707 146.439148,265.781738 
	C146.706726,265.581940 146.896164,265.324615 147.490570,264.666870 
	C147.666199,264.115753 147.841843,263.564667 148.280289,262.910400 
	C148.182846,262.934967 148.085403,262.959564 147.508804,263.333038 
	C147.335663,263.886017 147.162506,264.439026 146.552155,265.207458 
	C146.279327,265.406311 146.092438,265.666809 145.525589,266.005646 
M131.528046,280.007568 
	C131.266113,280.131744 131.004196,280.255920 130.742279,280.380066 
	C131.163544,280.254913 131.584824,280.129761 132.259476,279.895081 
	C132.171265,279.927887 132.083054,279.960693 131.528046,280.007568 
M125.606003,285.979187 
	C126.080414,285.660339 126.554817,285.341492 127.286682,284.900238 
	C127.182579,284.922791 127.078476,284.945312 126.383575,285.013947 
	C125.918503,285.339722 125.453423,285.665527 124.561226,286.219269 
	C124.294800,286.419312 124.105087,286.676056 123.511238,287.333679 
	C123.333580,287.883362 123.155930,288.433075 122.714821,289.089142 
	C122.814873,289.065948 122.914932,289.042725 123.495407,288.670837 
	C123.667435,288.116852 123.839462,287.562836 124.448456,286.793365 
	C124.721207,286.594788 124.908379,286.334625 125.606003,285.979187 
M166.399841,245.763428 
	C166.388153,245.428070 166.376465,245.092712 166.364777,244.757355 
	C166.240204,245.169312 166.115631,245.581253 165.553345,246.208221 
	C165.280243,246.406967 165.093185,246.667511 164.527878,247.007034 
	C164.267426,247.130905 164.006989,247.254761 163.746536,247.378647 
	C164.167480,247.254776 164.588425,247.130905 165.438705,246.781265 
	C165.706528,246.581345 165.895721,246.323685 166.399841,245.763428 
M112.501694,298.984406 
	C112.245193,299.119659 111.988686,299.254883 111.732178,299.390106 
	C112.166359,299.269196 112.600533,299.148285 113.292274,298.899445 
	C113.184250,298.919739 113.076233,298.940033 112.501694,298.984406 
M109.421616,302.778351 
	C109.407043,302.429810 109.392471,302.081299 109.377892,301.732758 
	C109.239220,302.145081 109.100540,302.557373 108.699181,303.087280 
	C108.808434,303.069519 108.917686,303.051788 109.421616,302.778351 
M159.506912,251.992920 
	C159.248306,252.125320 158.989716,252.257721 158.731125,252.390152 
	C159.164078,252.267883 159.597031,252.145630 160.288162,251.900986 
	C160.183456,251.923126 160.078735,251.945282 159.506912,251.992920 
M90.591560,320.230804 
	C90.606049,320.572174 90.620537,320.913513 90.635033,321.254883 
	C90.765625,320.843506 90.896225,320.432159 91.459610,319.800964 
	C91.728851,319.600037 91.913803,319.339294 92.607803,318.980316 
	C93.078583,318.658661 93.549362,318.336975 94.447052,317.790039 
	C94.714378,317.592712 94.905548,317.338165 95.497299,316.672791 
	C95.669388,316.118622 95.841476,315.564423 96.449890,314.794189 
	C96.722206,314.595367 96.909065,314.335205 97.604630,313.977112 
	C98.075195,313.655609 98.545761,313.334106 99.273773,312.895996 
	C99.177658,312.924530 99.081543,312.953064 98.392105,313.019440 
	C97.923988,313.343262 97.455872,313.667053 96.560516,314.218353 
	C96.294029,314.418121 96.104088,314.674622 95.510414,315.331177 
	C95.330414,315.879700 95.150414,316.428253 94.537926,317.196594 
	C94.267456,317.396057 94.082169,317.656219 93.389648,318.018555 
	C92.920975,318.341583 92.452301,318.664581 91.558189,319.215027 
	C91.292992,319.413574 91.101028,319.667511 90.591560,320.230804 
M81.284538,328.923645 
	C78.813591,327.074554 76.342651,325.225464 73.278893,322.932770 
	C73.980797,325.382812 74.454811,327.037384 74.152206,328.488464 
	C71.148178,326.492218 68.145866,326.737122 65.463478,328.925598 
	C62.015343,331.738800 58.621784,334.648376 55.450893,337.766754 
	C43.119743,349.893738 30.813053,362.047607 18.649176,374.341797 
	C13.176372,379.873260 13.363892,385.278564 18.903791,390.829651 
	C32.988094,404.942444 47.187115,418.941071 61.227615,433.097107 
	C67.360809,439.280762 72.517464,439.506470 78.654533,433.336029 
	C93.059105,418.853088 107.442421,404.348999 121.832794,389.851929 
	C125.707733,385.948242 126.266960,381.440247 122.939659,376.894501 
	C120.336639,373.338226 117.243088,370.140991 113.662247,365.961029 
	C143.497696,336.363708 173.428055,306.672211 203.240311,277.097870 
	C196.958450,266.431885 188.687332,258.709564 179.414337,251.850464 
	C176.313232,249.556641 174.424866,250.039307 171.884720,252.601822 
	C152.203964,272.455994 132.386475,292.174469 112.658424,311.981873 
	C103.884308,320.791290 95.218719,329.708801 85.802391,339.291077 
	C83.367546,336.569092 81.512863,334.495697 80.068710,331.824860 
	C80.714249,330.884583 81.359787,329.944275 82.275581,328.907501 
	C82.182457,328.936707 82.089325,328.965912 81.284538,328.923645 
M324.024963,243.210724 
	C322.962341,241.249573 322.275543,238.921204 320.776215,237.386810 
	C310.970215,227.351547 300.987457,217.488998 291.064209,207.568314 
	C274.797913,191.306259 258.646576,174.927063 242.229950,158.818253 
	C230.028122,146.845200 217.482986,135.221970 205.357468,123.696419 
	C205.503448,123.325638 205.123901,124.289673 204.076782,125.229286 
	C203.187439,125.234810 202.298080,125.240341 200.807632,125.286491 
	C200.544296,125.572075 200.280960,125.857658 199.564072,126.611145 
	C181.491623,144.705307 163.426865,162.807129 145.344254,180.891113 
	C131.727127,194.509247 118.048424,208.066345 104.524834,221.776566 
	C103.339111,222.978653 103.103737,225.118149 102.426941,226.822235 
	C104.108429,227.189102 105.835358,228.003601 107.462837,227.838409 
	C112.232239,227.354309 116.942284,226.050583 121.710724,225.830994 
	C146.541565,224.687485 169.311829,230.645615 189.030045,246.326828 
	C199.330704,254.518585 208.143555,264.029633 213.496277,276.445068 
	C213.844788,278.593109 213.991714,280.799347 214.591125,282.874908 
	C215.400528,285.677612 216.749237,284.169525 218.274612,283.670624 
	C227.232361,303.159485 228.858322,323.441895 225.085526,344.384552 
	C224.743774,346.281616 225.804688,348.431335 226.214203,350.463745 
	C228.009613,349.628845 230.220444,349.211212 231.539490,347.897888 
	C262.181366,317.389069 292.736115,286.792633 323.280090,256.185638 
	C328.304474,251.150894 328.341522,249.513611 324.024963,243.210724 
M1181.069824,214.627014 
	C1181.069824,212.092484 1181.069824,209.557953 1181.069824,207.023407 
	C1182.531372,208.596252 1183.252686,210.215729 1183.783569,211.895401 
	C1191.828735,237.350464 1199.827759,262.820068 1207.880005,288.272858 
	C1219.565308,325.209320 1231.327759,362.121490 1242.918091,399.087646 
	C1243.981812,402.480103 1245.405762,403.942535 1249.145874,403.898651 
	C1265.310059,403.708893 1281.479004,403.712311 1297.643188,403.900177 
	C1301.169556,403.941162 1302.413452,402.673462 1303.415527,399.410522 
	C1320.145020,344.935699 1337.024414,290.506897 1353.879639,236.070663 
	C1357.316406,224.971176 1360.790527,213.883240 1364.247559,202.789993 
	C1364.753174,202.856415 1365.258789,202.922821 1365.764404,202.989243 
	C1365.764404,282.543854 1365.764404,362.098511 1365.764404,441.776611 
	C1385.913696,441.776611 1405.163086,441.776611 1424.713135,441.776611 
	C1424.834351,440.048859 1425.025879,438.591431 1425.026123,437.134003 
	C1425.039795,325.135773 1425.017700,213.137558 1425.120972,101.139427 
	C1425.124756,97.089798 1423.839233,96.132553 1419.981323,96.157837 
	C1394.649414,96.323837 1369.315552,96.321442 1343.983398,96.194359 
	C1340.404541,96.176399 1338.833862,97.139824 1337.801636,100.802246 
	C1316.937622,174.835297 1295.910156,248.822250 1274.881470,322.808777 
	C1274.573120,323.893829 1273.833862,324.856415 1272.971558,326.490784 
	C1272.179932,324.553833 1271.636353,323.517731 1271.323975,322.416077 
	C1263.630737,295.296936 1255.953369,268.173309 1248.290527,241.045547 
	C1235.096069,194.333984 1221.891113,147.625290 1208.771729,100.892570 
	C1207.828003,97.531227 1206.387329,96.140251 1202.603760,96.168076 
	C1177.438965,96.353203 1152.270996,96.365326 1127.106689,96.139359 
	C1122.508179,96.098068 1121.209961,97.373352 1121.214966,101.988800 
	C1121.336060,213.486893 1121.308472,324.985138 1121.319458,436.483368 
	C1121.319580,438.244751 1121.468872,440.006165 1121.548340,441.764526 
	C1141.561523,441.764526 1160.986572,441.764526 1181.069824,441.764526 
	C1181.069824,366.161011 1181.069824,290.876343 1181.069824,214.627014 
M2425.216309,356.500000 
	C2425.216309,340.667145 2425.405273,324.830750 2425.105469,309.003571 
	C2425.011230,304.041046 2426.680176,302.779297 2431.387207,302.941986 
	C2440.875244,303.269958 2450.388428,303.210480 2459.879883,302.929810 
	C2463.626953,302.818970 2465.554443,304.298279 2467.286377,307.400940 
	C2491.642822,351.030243 2516.125488,394.589081 2540.469727,438.225250 
	C2542.053467,441.063629 2543.770264,442.177124 2547.085205,442.155243 
	C2570.249756,442.002045 2593.416016,442.079742 2616.581543,442.059570 
	C2617.981934,442.058350 2619.382324,441.851593 2621.667969,441.670227 
	C2594.015137,394.049011 2566.753906,347.101807 2539.314941,299.848938 
	C2541.620361,299.027863 2543.011963,298.521942 2544.410156,298.035950 
	C2568.085938,289.806702 2585.699219,274.635651 2596.196045,251.800491 
	C2610.301025,221.116196 2610.630859,189.524933 2600.503906,157.781921 
	C2595.573975,142.329132 2586.811279,128.946655 2574.362793,118.235336 
	C2556.178711,102.588432 2534.680176,96.284760 2511.125244,96.221542 
	C2462.294434,96.090500 2413.462891,96.136993 2364.631836,96.126968 
	C2363.188721,96.126671 2361.745850,96.310814 2360.193604,96.416382 
	C2360.193604,211.717072 2360.193604,326.626587 2360.193604,441.717926 
	C2381.879395,441.717926 2403.266113,441.717926 2425.216797,441.717926 
	C2425.216797,413.410248 2425.216797,385.455139 2425.216309,356.500000 
M1589.028076,442.454498 
	C1607.471680,446.394897 1626.010132,446.818939 1644.613647,443.806091 
	C1678.605103,438.301117 1706.384399,422.627411 1725.829468,393.629883 
	C1739.987549,372.516449 1746.095337,348.748566 1746.598755,323.722076 
	C1747.248535,291.414246 1747.163086,259.078888 1746.659546,226.766815 
	C1746.450684,213.358765 1745.639648,199.703568 1742.855591,186.639587 
	C1733.965088,144.921448 1709.431274,115.886963 1669.130737,101.080170 
	C1642.300903,91.222641 1614.586792,90.480133 1586.936157,96.555275 
	C1555.900024,103.374268 1530.815063,119.673943 1513.572144,146.894608 
	C1500.667969,167.265640 1494.616333,189.859695 1494.272217,213.726349 
	C1493.751099,249.870987 1493.973877,286.029083 1494.158936,322.180054 
	C1494.253662,340.664917 1497.548828,358.664337 1505.129639,375.615631 
	C1521.393921,411.983459 1549.503540,433.767303 1589.028076,442.454498 
M2083.495361,416.001190 
	C2091.352051,421.283569 2098.741943,427.506744 2107.149414,431.679626 
	C2137.565918,446.776306 2169.689453,449.195953 2202.566895,442.053284 
	C2235.246582,434.953674 2260.843506,417.432770 2278.132568,388.506927 
	C2290.232178,368.263763 2295.401855,345.964630 2295.673096,322.658966 
	C2296.088135,287.006958 2295.986816,251.344559 2295.641602,215.691055 
	C2295.553467,206.599319 2294.444824,197.372513 2292.569824,188.467972 
	C2284.270264,149.054138 2262.578857,119.851158 2225.109863,103.769127 
	C2195.649414,91.124245 2164.930420,89.901115 2134.000977,97.110725 
	C2102.004150,104.569115 2076.983643,122.231560 2060.292725,150.875534 
	C2048.792480,170.611481 2043.609009,192.249939 2043.277832,214.867050 
	C2042.794922,247.851486 2042.959839,280.848328 2043.158447,313.838013 
	C2043.215332,323.294922 2043.806152,332.818085 2045.077637,342.185272 
	C2048.996094,371.052673 2060.985352,395.907318 2083.495361,416.001190 
M2808.971924,443.481964 
	C2822.282959,439.956268 2836.108643,437.718262 2848.802490,432.647766 
	C2879.028076,420.574280 2899.390137,398.760803 2905.737549,366.267792 
	C2908.223389,353.543182 2908.547363,340.093536 2907.783447,327.095886 
	C2905.805420,293.434967 2888.548584,269.599579 2857.883545,255.878555 
	C2835.535645,245.879211 2811.424805,242.007172 2787.706787,236.709641 
	C2773.980713,233.643829 2760.120850,230.005783 2747.294922,224.398010 
	C2733.245605,218.255295 2726.768555,205.897232 2727.984619,190.241287 
	C2729.114746,175.693405 2738.127441,167.319717 2750.741211,161.911865 
	C2763.415527,156.478088 2776.795898,155.489166 2790.361572,155.486618 
	C2815.369873,155.481934 2838.122070,163.310318 2859.665771,175.329605 
	C2864.566406,178.063629 2869.309814,181.079742 2874.404053,184.132858 
	C2883.223389,166.477509 2891.805420,149.193359 2900.511475,131.971939 
	C2901.917236,129.191269 2900.515869,127.956795 2898.460693,126.865372 
	C2886.710449,120.625320 2875.348145,113.435692 2863.106445,108.378212 
	C2817.103027,89.372040 2770.271240,86.839439 2723.408203,104.940491 
	C2698.593262,114.525391 2680.349854,131.696930 2670.540527,157.001602 
	C2663.139160,176.095230 2662.028076,195.817047 2664.055420,215.978088 
	C2667.098633,246.245834 2681.831543,268.782562 2708.991699,282.266968 
	C2730.079102,292.736511 2753.334717,296.084625 2776.308105,300.150269 
	C2790.537842,302.668488 2804.811523,305.375702 2818.683350,309.336670 
	C2829.683594,312.477753 2838.893066,319.089386 2842.291260,331.030975 
	C2847.858887,350.595337 2839.297363,367.683960 2819.822021,375.896973 
	C2800.012207,384.251038 2779.241455,384.422211 2758.375488,382.141907 
	C2729.846191,379.024109 2703.690430,369.498260 2680.708984,351.947357 
	C2679.584229,351.088470 2678.301514,350.436676 2676.758789,349.481995 
	C2666.999023,366.734650 2657.444092,383.494690 2648.142578,400.394531 
	C2647.588867,401.400787 2648.575684,404.338379 2649.677002,405.006989 
	C2662.593994,412.847595 2675.081299,421.761658 2688.817383,427.817596 
	C2726.876221,444.597504 2766.941406,448.911041 2808.971924,443.481964 
M774.497192,98.906235 
	C704.226746,98.906235 633.956299,98.906235 563.523438,98.906235 
	C563.523438,214.421799 563.523438,329.410614 563.523438,444.418030 
	C585.192078,444.418030 606.462646,444.418030 628.375122,444.418030 
	C628.375122,398.818359 628.375122,353.465912 628.375122,307.564728 
	C673.919067,307.564728 718.822815,307.564728 763.942871,307.564728 
	C763.942871,286.407379 763.942871,265.805542 763.942871,244.452896 
	C718.675415,244.452896 673.641968,244.452896 628.571899,244.452896 
	C628.571899,216.607361 628.571899,189.513550 628.571899,161.878998 
	C682.555725,161.878998 736.284851,161.878998 789.847534,161.878998 
	C789.847534,140.606033 789.847534,119.877388 789.847534,98.906227 
	C784.792114,98.906227 780.144104,98.906227 774.497192,98.906235 
M1927.304199,370.500031 
	C1927.304077,302.345490 1927.303467,234.190964 1927.304565,166.036438 
	C1927.304688,159.318527 1927.309692,159.309174 1934.227905,159.308136 
	C1961.389771,159.304047 1988.551514,159.313522 2015.713379,159.291153 
	C2017.625122,159.289581 2019.536499,159.070816 2021.579346,158.944962 
	C2021.698486,157.075317 2021.853271,155.766022 2021.854492,154.456573 
	C2021.870239,136.793045 2021.744507,119.128090 2021.952515,101.467003 
	C2022.002319,97.243507 2020.600586,96.158051 2016.524048,96.163231 
	C1935.371826,96.266281 1854.219604,96.266022 1773.067383,96.159027 
	C1769.169312,96.153885 1767.892700,97.149338 1767.937500,101.160423 
	C1768.135132,118.821747 1768.156372,136.488281 1767.926636,154.148834 
	C1767.870728,158.457672 1769.364258,159.408157 1773.379761,159.385849 
	C1800.707397,159.234009 1828.036255,159.304794 1855.364746,159.307663 
	C1862.207031,159.308380 1862.212402,159.314972 1862.212524,166.042923 
	C1862.213745,255.860336 1862.213379,345.677734 1862.213379,435.495148 
	C1862.213379,437.579529 1862.213379,439.663910 1862.213379,441.732788 
	C1884.324829,441.732788 1905.575195,441.732788 1927.304688,441.732788 
	C1927.304688,418.089966 1927.304688,394.795013 1927.304199,370.500031 
M921.444519,418.500275 
	C921.444519,312.087219 921.444519,205.674194 921.444519,99.059959 
	C902.764038,99.059959 884.784363,99.027344 866.805420,99.123108 
	C865.396851,99.130608 863.947266,99.931564 862.593994,100.536530 
	C847.865234,107.120888 833.191772,113.831070 818.403259,120.277679 
	C815.172363,121.686073 814.020569,123.441574 814.051880,127.004204 
	C814.226135,146.833008 814.120361,166.664215 814.127563,186.494598 
	C814.128113,187.938187 814.264343,189.381714 814.373962,191.544556 
	C828.510742,186.241714 842.148621,181.125977 856.447632,175.762253 
	C856.447632,265.832031 856.447632,355.064575 856.447632,444.291016 
	C878.291260,444.291016 899.677368,444.291016 921.444336,444.291016 
	C921.444336,435.777313 921.444336,427.638824 921.444519,418.500275 
M332.575989,175.924072 
	C342.581726,185.930527 352.544250,195.980743 362.613403,205.922943 
	C366.925873,210.181061 369.762299,209.979401 374.004120,205.567551 
	C376.311584,203.167572 378.649994,200.797256 380.981964,198.420929 
	C385.137329,194.186584 385.235779,192.197525 381.134766,187.992752 
	C375.796265,182.519272 370.340332,177.160385 364.938385,171.748718 
	C340.381348,147.147476 315.829132,122.541443 291.267395,97.944931 
	C282.565674,89.230919 273.869720,80.510834 265.115967,71.849274 
	C260.906677,67.684349 258.901520,67.674301 254.621643,71.601990 
	C252.415924,73.626213 250.294418,75.742882 248.152039,77.835373 
	C241.814301,84.025475 241.782654,85.146904 248.018707,91.392220 
	C276.013397,119.428566 304.022949,147.450089 332.575989,175.924072 
M220.014359,307.086731 
	C220.014359,314.145203 220.014359,321.203705 220.014359,328.262177 
	C220.636353,328.249023 221.258347,328.235870 221.880341,328.222717 
	C221.880341,320.721008 221.880341,313.219269 221.880341,305.717560 
	C221.267120,305.895966 220.653915,306.074371 220.014359,307.086731 
M202.724106,120.524635 
	C202.986267,120.275383 203.248428,120.026138 203.510590,119.776894 
	C203.404785,119.666130 203.213287,119.452965 203.205582,119.459404 
	C202.928543,119.691246 202.668655,119.943573 202.724106,120.524635 
M200.592606,118.510773 
	C200.592606,118.510773 200.484497,118.572777 200.592606,118.510773 
M84.575630,327.511353 
	C84.575630,327.511353 84.465736,327.574982 84.575630,327.511353 
M105.490784,305.599152 
	C105.490784,305.599152 105.425377,305.488129 105.490784,305.599152 
z"/>
<path fill="#2665CD" opacity="1.000000" stroke="none" 
	d="
M1181.069824,215.109329 
	C1181.069824,290.876343 1181.069824,366.161011 1181.069824,441.764526 
	C1160.986572,441.764526 1141.561523,441.764526 1121.548340,441.764526 
	C1121.468872,440.006165 1121.319580,438.244751 1121.319458,436.483368 
	C1121.308472,324.985138 1121.336060,213.486893 1121.214966,101.988800 
	C1121.209961,97.373352 1122.508179,96.098068 1127.106689,96.139359 
	C1152.270996,96.365326 1177.438965,96.353203 1202.603760,96.168076 
	C1206.387329,96.140251 1207.828003,97.531227 1208.771729,100.892570 
	C1221.891113,147.625290 1235.096069,194.333984 1248.290527,241.045547 
	C1255.953369,268.173309 1263.630737,295.296936 1271.323975,322.416077 
	C1271.636353,323.517731 1272.179932,324.553833 1272.971558,326.490784 
	C1273.833862,324.856415 1274.573120,323.893829 1274.881470,322.808777 
	C1295.910156,248.822250 1316.937622,174.835297 1337.801636,100.802246 
	C1338.833862,97.139824 1340.404541,96.176399 1343.983398,96.194359 
	C1369.315552,96.321442 1394.649414,96.323837 1419.981323,96.157837 
	C1423.839233,96.132553 1425.124756,97.089798 1425.120972,101.139427 
	C1425.017700,213.137558 1425.039795,325.135773 1425.026123,437.134003 
	C1425.025879,438.591431 1424.834351,440.048859 1424.713135,441.776611 
	C1405.163086,441.776611 1385.913696,441.776611 1365.764404,441.776611 
	C1365.764404,362.098511 1365.764404,282.543854 1365.764404,202.989243 
	C1365.258789,202.922821 1364.753174,202.856415 1364.247559,202.789993 
	C1360.790527,213.883240 1357.316406,224.971176 1353.879639,236.070663 
	C1337.024414,290.506897 1320.145020,344.935699 1303.415527,399.410522 
	C1302.413452,402.673462 1301.169556,403.941162 1297.643188,403.900177 
	C1281.479004,403.712311 1265.310059,403.708893 1249.145874,403.898651 
	C1245.405762,403.942535 1243.981812,402.480103 1242.918091,399.087646 
	C1231.327759,362.121490 1219.565308,325.209320 1207.880005,288.272858 
	C1199.827759,262.820068 1191.828735,237.350464 1183.783569,211.895401 
	C1183.252686,210.215729 1182.531372,208.596252 1181.069824,207.023407 
	C1181.069824,209.557953 1181.069824,212.092484 1181.069824,215.109329 
z"/>
<path fill="#2665CE" opacity="1.000000" stroke="none" 
	d="
M2425.216553,357.000000 
	C2425.216797,385.455139 2425.216797,413.410248 2425.216797,441.717926 
	C2403.266113,441.717926 2381.879395,441.717926 2360.193604,441.717926 
	C2360.193604,326.626587 2360.193604,211.717072 2360.193604,96.416382 
	C2361.745850,96.310814 2363.188721,96.126671 2364.631836,96.126968 
	C2413.462891,96.136993 2462.294434,96.090500 2511.125244,96.221542 
	C2534.680176,96.284760 2556.178711,102.588432 2574.362793,118.235336 
	C2586.811279,128.946655 2595.573975,142.329132 2600.503906,157.781921 
	C2610.630859,189.524933 2610.301025,221.116196 2596.196045,251.800491 
	C2585.699219,274.635651 2568.085938,289.806702 2544.410156,298.035950 
	C2543.011963,298.521942 2541.620361,299.027863 2539.314941,299.848938 
	C2566.753906,347.101807 2594.015137,394.049011 2621.667969,441.670227 
	C2619.382324,441.851593 2617.981934,442.058350 2616.581543,442.059570 
	C2593.416016,442.079742 2570.249756,442.002045 2547.085205,442.155243 
	C2543.770264,442.177124 2542.053467,441.063629 2540.469727,438.225250 
	C2516.125488,394.589081 2491.642822,351.030243 2467.286377,307.400940 
	C2465.554443,304.298279 2463.626953,302.818970 2459.879883,302.929810 
	C2450.388428,303.210480 2440.875244,303.269958 2431.387207,302.941986 
	C2426.680176,302.779297 2425.011230,304.041046 2425.105469,309.003571 
	C2425.405273,324.830750 2425.216309,340.667145 2425.216553,357.000000 
M2522.527588,236.179718 
	C2525.391357,233.678741 2528.711914,231.540375 2531.036621,228.611542 
	C2539.296875,218.204605 2541.169189,205.849319 2539.808350,193.163666 
	C2537.639404,172.943375 2526.176758,158.300140 2502.909912,158.923508 
	C2478.769531,159.570297 2454.600098,159.188538 2430.443848,159.100220 
	C2426.764893,159.086761 2425.086914,159.802032 2425.119385,164.015900 
	C2425.302734,187.837921 2425.279297,211.662537 2425.135010,235.485107 
	C2425.112305,239.253662 2426.336426,240.301804 2430.021240,240.282211 
	C2455.343262,240.147522 2480.669189,240.421631 2505.986572,240.052917 
	C2511.298340,239.975571 2516.579346,237.773819 2522.527588,236.179718 
z"/>
<path fill="#2665CD" opacity="1.000000" stroke="none" 
	d="
M1588.614746,442.359497 
	C1549.503540,433.767303 1521.393921,411.983459 1505.129639,375.615631 
	C1497.548828,358.664337 1494.253662,340.664917 1494.158936,322.180054 
	C1493.973877,286.029083 1493.751099,249.870987 1494.272217,213.726349 
	C1494.616333,189.859695 1500.667969,167.265640 1513.572144,146.894608 
	C1530.815063,119.673943 1555.900024,103.374268 1586.936157,96.555275 
	C1614.586792,90.480133 1642.300903,91.222641 1669.130737,101.080170 
	C1709.431274,115.886963 1733.965088,144.921448 1742.855591,186.639587 
	C1745.639648,199.703568 1746.450684,213.358765 1746.659546,226.766815 
	C1747.163086,259.078888 1747.248535,291.414246 1746.598755,323.722076 
	C1746.095337,348.748566 1739.987549,372.516449 1725.829468,393.629883 
	C1706.384399,422.627411 1678.605103,438.301117 1644.613647,443.806091 
	C1626.010132,446.818939 1607.471680,446.394897 1588.614746,442.359497 
M1675.903320,196.774033 
	C1672.418457,186.693405 1667.330200,177.675644 1658.852661,170.874252 
	C1646.535034,160.992096 1632.261108,157.710434 1616.798706,158.161804 
	C1586.297974,159.052185 1562.472656,182.090256 1562.028687,212.585434 
	C1561.475952,250.551178 1561.552246,288.536133 1562.081665,326.502716 
	C1562.297852,342.008057 1568.500366,355.671783 1580.255371,366.239014 
	C1595.198486,379.671906 1613.169678,381.996307 1632.169189,379.409637 
	C1642.236084,378.039062 1651.401855,374.083374 1659.182983,367.398895 
	C1672.092041,356.309235 1678.502808,341.798218 1678.716675,325.165588 
	C1679.196289,287.864899 1678.974365,250.553146 1678.740479,213.247787 
	C1678.707520,208.015320 1677.000488,202.793335 1675.903320,196.774033 
z"/>
<path fill="#2665CD" opacity="1.000000" stroke="none" 
	d="
M2083.238281,415.754791 
	C2060.985352,395.907318 2048.996094,371.052673 2045.077637,342.185272 
	C2043.806152,332.818085 2043.215332,323.294922 2043.158447,313.838013 
	C2042.959839,280.848328 2042.794922,247.851486 2043.277832,214.867050 
	C2043.609009,192.249939 2048.792480,170.611481 2060.292725,150.875534 
	C2076.983643,122.231560 2102.004150,104.569115 2134.000977,97.110725 
	C2164.930420,89.901115 2195.649414,91.124245 2225.109863,103.769127 
	C2262.578857,119.851158 2284.270264,149.054138 2292.569824,188.467972 
	C2294.444824,197.372513 2295.553467,206.599319 2295.641602,215.691055 
	C2295.986816,251.344559 2296.088135,287.006958 2295.673096,322.658966 
	C2295.401855,345.964630 2290.232178,368.263763 2278.132568,388.506927 
	C2260.843506,417.432770 2235.246582,434.953674 2202.566895,442.053284 
	C2169.689453,449.195953 2137.565918,446.776306 2107.149414,431.679626 
	C2098.741943,427.506744 2091.352051,421.283569 2083.238281,415.754791 
M2168.520020,380.267365 
	C2205.194092,381.184021 2228.048584,355.493713 2228.031982,321.488068 
	C2228.014404,285.326752 2228.204590,249.163086 2227.851562,213.004868 
	C2227.604248,187.683517 2211.626953,167.095459 2187.161621,160.540558 
	C2149.988525,150.580780 2111.492676,170.822327 2111.025146,216.118057 
	C2110.657227,251.775528 2110.791992,287.441010 2111.017090,323.100952 
	C2111.218262,354.934814 2133.145508,380.039581 2168.520020,380.267365 
z"/>
<path fill="#2665CD" opacity="1.000000" stroke="none" 
	d="
M2808.538574,443.573242 
	C2766.941406,448.911041 2726.876221,444.597504 2688.817383,427.817596 
	C2675.081299,421.761658 2662.593994,412.847595 2649.677002,405.006989 
	C2648.575684,404.338379 2647.588867,401.400787 2648.142578,400.394531 
	C2657.444092,383.494690 2666.999023,366.734650 2676.758789,349.481995 
	C2678.301514,350.436676 2679.584229,351.088470 2680.708984,351.947357 
	C2703.690430,369.498260 2729.846191,379.024109 2758.375488,382.141907 
	C2779.241455,384.422211 2800.012207,384.251038 2819.822021,375.896973 
	C2839.297363,367.683960 2847.858887,350.595337 2842.291260,331.030975 
	C2838.893066,319.089386 2829.683594,312.477753 2818.683350,309.336670 
	C2804.811523,305.375702 2790.537842,302.668488 2776.308105,300.150269 
	C2753.334717,296.084625 2730.079102,292.736511 2708.991699,282.266968 
	C2681.831543,268.782562 2667.098633,246.245834 2664.055420,215.978088 
	C2662.028076,195.817047 2663.139160,176.095230 2670.540527,157.001602 
	C2680.349854,131.696930 2698.593262,114.525391 2723.408203,104.940491 
	C2770.271240,86.839439 2817.103027,89.372040 2863.106445,108.378212 
	C2875.348145,113.435692 2886.710449,120.625320 2898.460693,126.865372 
	C2900.515869,127.956795 2901.917236,129.191269 2900.511475,131.971939 
	C2891.805420,149.193359 2883.223389,166.477509 2874.404053,184.132858 
	C2869.309814,181.079742 2864.566406,178.063629 2859.665771,175.329605 
	C2838.122070,163.310318 2815.369873,155.481934 2790.361572,155.486618 
	C2776.795898,155.489166 2763.415527,156.478088 2750.741211,161.911865 
	C2738.127441,167.319717 2729.114746,175.693405 2727.984619,190.241287 
	C2726.768555,205.897232 2733.245605,218.255295 2747.294922,224.398010 
	C2760.120850,230.005783 2773.980713,233.643829 2787.706787,236.709641 
	C2811.424805,242.007172 2835.535645,245.879211 2857.883545,255.878555 
	C2888.548584,269.599579 2905.805420,293.434967 2907.783447,327.095886 
	C2908.547363,340.093536 2908.223389,353.543182 2905.737549,366.267792 
	C2899.390137,398.760803 2879.028076,420.574280 2848.802490,432.647766 
	C2836.108643,437.718262 2822.282959,439.956268 2808.538574,443.573242 
z"/>
<path fill="#FDFDFD" opacity="1.000000" stroke="none" 
	d="
M774.996643,98.906235 
	C780.144104,98.906227 784.792114,98.906227 789.847534,98.906227 
	C789.847534,119.877388 789.847534,140.606033 789.847534,161.878998 
	C736.284851,161.878998 682.555725,161.878998 628.571899,161.878998 
	C628.571899,189.513550 628.571899,216.607361 628.571899,244.452896 
	C673.641968,244.452896 718.675415,244.452896 763.942871,244.452896 
	C763.942871,265.805542 763.942871,286.407379 763.942871,307.564728 
	C718.822815,307.564728 673.919067,307.564728 628.375122,307.564728 
	C628.375122,353.465912 628.375122,398.818359 628.375122,444.418030 
	C606.462646,444.418030 585.192078,444.418030 563.523438,444.418030 
	C563.523438,329.410614 563.523438,214.421799 563.523438,98.906235 
	C633.956299,98.906235 704.226746,98.906235 774.996643,98.906235 
z"/>
<path fill="#2665CD" opacity="1.000000" stroke="none" 
	d="
M1927.304443,371.000061 
	C1927.304688,394.795013 1927.304688,418.089966 1927.304688,441.732788 
	C1905.575195,441.732788 1884.324829,441.732788 1862.213379,441.732788 
	C1862.213379,439.663910 1862.213379,437.579529 1862.213379,435.495148 
	C1862.213379,345.677734 1862.213745,255.860336 1862.212524,166.042923 
	C1862.212402,159.314972 1862.207031,159.308380 1855.364746,159.307663 
	C1828.036255,159.304794 1800.707397,159.234009 1773.379761,159.385849 
	C1769.364258,159.408157 1767.870728,158.457672 1767.926636,154.148834 
	C1768.156372,136.488281 1768.135132,118.821747 1767.937500,101.160423 
	C1767.892700,97.149338 1769.169312,96.153885 1773.067383,96.159027 
	C1854.219604,96.266022 1935.371826,96.266281 2016.524048,96.163231 
	C2020.600586,96.158051 2022.002319,97.243507 2021.952515,101.467003 
	C2021.744507,119.128090 2021.870239,136.793045 2021.854492,154.456573 
	C2021.853271,155.766022 2021.698486,157.075317 2021.579346,158.944962 
	C2019.536499,159.070816 2017.625122,159.289581 2015.713379,159.291153 
	C1988.551514,159.313522 1961.389771,159.304047 1934.227905,159.308136 
	C1927.309692,159.309174 1927.304688,159.318527 1927.304565,166.036438 
	C1927.303467,234.190964 1927.304077,302.345490 1927.304443,371.000061 
z"/>
<path fill="#FDFDFD" opacity="1.000000" stroke="none" 
	d="
M921.444458,419.000305 
	C921.444336,427.638824 921.444336,435.777313 921.444336,444.291016 
	C899.677368,444.291016 878.291260,444.291016 856.447632,444.291016 
	C856.447632,355.064575 856.447632,265.832031 856.447632,175.762253 
	C842.148621,181.125977 828.510742,186.241714 814.373962,191.544556 
	C814.264343,189.381714 814.128113,187.938187 814.127563,186.494598 
	C814.120361,166.664215 814.226135,146.833008 814.051880,127.004204 
	C814.020569,123.441574 815.172363,121.686073 818.403259,120.277679 
	C833.191772,113.831070 847.865234,107.120888 862.593994,100.536530 
	C863.947266,99.931564 865.396851,99.130608 866.805420,99.123108 
	C884.784363,99.027344 902.764038,99.059959 921.444519,99.059959 
	C921.444519,205.674194 921.444519,312.087219 921.444458,419.000305 
z"/>
<path fill="#2665CE" opacity="1.000000" stroke="none" 
	d="
M201.408737,125.245880 
	C202.298080,125.240341 203.187439,125.234810 204.614609,125.500916 
	C225.299957,145.848343 245.430801,165.940903 265.599792,185.995132 
	C285.054749,205.339401 304.549103,224.644073 324.026154,243.966141 
	C328.341522,249.513611 328.304474,251.150894 323.280090,256.185638 
	C292.736115,286.792633 262.181366,317.389069 231.539490,347.897888 
	C230.220444,349.211212 228.009613,349.628845 226.214203,350.463745 
	C225.804688,348.431335 224.743774,346.281616 225.085526,344.384552 
	C228.858322,323.441895 227.232361,303.159485 218.137512,282.992676 
	C216.676895,280.201569 215.353348,278.088440 214.029800,275.975311 
	C208.143555,264.029633 199.330704,254.518585 189.030045,246.326828 
	C169.311829,230.645615 146.541565,224.687485 121.710724,225.830994 
	C116.942284,226.050583 112.232239,227.354309 107.462837,227.838409 
	C105.835358,228.003601 104.108429,227.189102 102.426941,226.822235 
	C103.103737,225.118149 103.339111,222.978653 104.524834,221.776566 
	C118.048424,208.066345 131.727127,194.509247 145.344254,180.891113 
	C163.426865,162.807129 181.491623,144.705307 200.073090,126.319092 
	C200.857651,125.766655 201.133194,125.506264 201.408737,125.245880 
M228.863953,202.223679 
	C227.549149,203.491318 226.091095,204.642227 224.945648,206.047882 
	C221.095688,210.772491 221.229080,218.082108 225.140244,223.720840 
	C228.502655,228.568359 235.550217,231.143677 240.936127,229.492905 
	C250.272552,226.631348 254.299271,217.976273 250.686676,208.534927 
	C247.572098,200.395096 238.659134,197.589310 228.863953,202.223679 
z"/>
<path fill="#2665CC" opacity="1.000000" stroke="none" 
	d="
M79.658180,332.422302 
	C81.512863,334.495697 83.367546,336.569092 85.802391,339.291077 
	C95.218719,329.708801 103.884308,320.791290 112.658424,311.981873 
	C132.386475,292.174469 152.203964,272.455994 171.884720,252.601822 
	C174.424866,250.039307 176.313232,249.556641 179.414337,251.850464 
	C188.687332,258.709564 196.958450,266.431885 203.240311,277.097870 
	C173.428055,306.672211 143.497696,336.363708 113.662247,365.961029 
	C117.243088,370.140991 120.336639,373.338226 122.939659,376.894501 
	C126.266960,381.440247 125.707733,385.948242 121.832794,389.851929 
	C107.442421,404.348999 93.059105,418.853088 78.654533,433.336029 
	C72.517464,439.506470 67.360809,439.280762 61.227615,433.097107 
	C47.187115,418.941071 32.988094,404.942444 18.903791,390.829651 
	C13.363892,385.278564 13.176372,379.873260 18.649176,374.341797 
	C30.813053,362.047607 43.119743,349.893738 55.450893,337.766754 
	C58.621784,334.648376 62.015343,331.738800 65.463478,328.925598 
	C68.145866,326.737122 71.148178,326.492218 74.714493,328.816772 
	C76.737244,330.237518 78.197708,331.329926 79.658180,332.422302 
M62.374786,357.332764 
	C50.671650,361.508301 43.797173,370.039581 43.515209,382.174530 
	C43.282982,392.169128 47.704414,400.792267 57.232929,405.897766 
	C66.582153,410.907227 79.701607,409.697449 87.098602,402.932556 
	C96.015015,394.778137 99.124199,382.573883 94.031418,372.259827 
	C88.160194,360.369141 79.957596,354.917419 62.374786,357.332764 
z"/>
<path fill="#2664CB" opacity="1.000000" stroke="none" 
	d="
M332.301575,175.700516 
	C304.022949,147.450089 276.013397,119.428566 248.018707,91.392220 
	C241.782654,85.146904 241.814301,84.025475 248.152039,77.835373 
	C250.294418,75.742882 252.415924,73.626213 254.621643,71.601990 
	C258.901520,67.674301 260.906677,67.684349 265.115967,71.849274 
	C273.869720,80.510834 282.565674,89.230919 291.267395,97.944931 
	C315.829132,122.541443 340.381348,147.147476 364.938385,171.748718 
	C370.340332,177.160385 375.796265,182.519272 381.134766,187.992752 
	C385.235779,192.197525 385.137329,194.186584 380.981964,198.420929 
	C378.649994,200.797256 376.311584,203.167572 374.004120,205.567551 
	C369.762299,209.979401 366.925873,210.181061 362.613403,205.922943 
	C352.544250,195.980743 342.581726,185.930527 332.301575,175.700516 
z"/>
<path fill="#2665CC" opacity="1.000000" stroke="none" 
	d="
M352.724915,214.504028 
	C357.512665,221.562958 357.489441,221.854355 351.657166,227.923233 
	C340.644318,239.382889 340.606018,239.421234 329.335754,228.154465 
	C305.009857,203.836121 280.726807,179.474930 256.427338,155.130173 
	C243.862320,142.541733 231.371399,129.877975 218.689621,117.408279 
	C215.145386,113.923317 215.291245,110.851135 218.491333,107.547798 
	C221.150101,104.803253 223.676804,101.821404 226.748367,99.624748 
	C228.779510,98.172165 231.670609,97.922050 234.809525,97.387192 
	C236.204102,98.519165 236.915237,99.448090 237.734894,100.268608 
	C268.057343,130.622635 298.362305,160.994263 328.739777,191.293182 
	C336.616089,199.149170 344.723602,206.773361 352.724915,214.504028 
z"/>
<path fill="#192333" opacity="1.000000" stroke="none" 
	d="
M352.798035,214.103119 
	C344.723602,206.773361 336.616089,199.149170 328.739777,191.293182 
	C298.362305,160.994263 268.057343,130.622635 237.734894,100.268608 
	C236.915237,99.448090 236.204102,98.519165 235.237183,97.397812 
	C234.374710,95.676338 233.717407,94.197853 233.029358,92.359543 
	C232.998627,91.999710 233.023148,91.969681 233.023148,91.969681 
	C237.148102,95.666794 241.423660,99.210777 245.369003,103.090553 
	C256.016785,113.561378 266.551361,124.147964 277.077972,134.741165 
	C285.128296,142.842392 293.028046,151.093948 301.120087,159.152832 
	C312.913208,170.897583 324.913330,182.435669 336.634033,194.251480 
	C341.956573,199.617203 346.846222,205.415085 351.858002,211.082565 
	C352.439545,211.740158 352.545013,212.818756 352.798035,214.103119 
z"/>
<path fill="#1F2A3D" opacity="1.000000" stroke="none" 
	d="
M324.025574,243.588440 
	C304.549103,224.644073 285.054749,205.339401 265.599792,185.995132 
	C245.430801,165.940903 225.299957,145.848343 204.948395,125.513130 
	C205.123901,124.289673 205.503448,123.325638 205.357468,123.696419 
	C217.482986,135.221970 230.028122,146.845200 242.229950,158.818253 
	C258.646576,174.927063 274.797913,191.306259 291.064209,207.568314 
	C300.987457,217.488998 310.970215,227.351547 320.776215,237.386810 
	C322.275543,238.921204 322.962341,241.249573 324.025574,243.588440 
z"/>
<path fill="#23272F" opacity="1.000000" stroke="none" 
	d="
M220.027527,306.669739 
	C220.653915,306.074371 221.267120,305.895966 221.880341,305.717560 
	C221.880341,313.219269 221.880341,320.721008 221.880341,328.222717 
	C221.258347,328.235870 220.636353,328.249023 220.014359,328.262177 
	C220.014359,321.203705 220.014359,314.145203 220.027527,306.669739 
z"/>
<path fill="#1D222B" opacity="1.000000" stroke="none" 
	d="
M27.979042,351.979797 
	C31.417219,348.338867 34.855400,344.697968 38.646664,341.028320 
	C38.999748,340.999634 39.019886,341.019470 39.019894,341.019470 
	C35.580906,344.657684 32.141914,348.295898 28.351082,351.966736 
	C27.999245,351.999359 27.979044,351.979797 27.979042,351.979797 
z"/>
<path fill="#202732" opacity="1.000000" stroke="none" 
	d="
M79.863441,332.123596 
	C78.197708,331.329926 76.737244,330.237518 75.102798,328.918518 
	C74.454811,327.037384 73.980797,325.382812 73.278893,322.932770 
	C76.342651,325.225464 78.813591,327.074554 81.642273,328.961823 
	C82.000000,329.000000 82.005333,329.003998 82.005325,329.003998 
	C81.359787,329.944275 80.714249,330.884583 79.863441,332.123596 
z"/>
<path fill="#1E242E" opacity="1.000000" stroke="none" 
	d="
M56.963638,322.964264 
	C60.454769,318.427826 65.237518,317.768951 69.916138,320.824890 
	C66.114052,321.482788 61.954578,322.202515 57.396748,322.960419 
	C56.998390,322.998566 56.963638,322.964264 56.963638,322.964264 
z"/>
<path fill="#1E2B40" opacity="1.000000" stroke="none" 
	d="
M213.763031,276.210205 
	C215.353348,278.088440 216.676895,280.201569 217.966827,282.679016 
	C216.749237,284.169525 215.400528,285.677612 214.591125,282.874908 
	C213.991714,280.799347 213.844788,278.593109 213.763031,276.210205 
z"/>
<path fill="#1D222B" opacity="1.000000" stroke="none" 
	d="
M18.974857,360.980927 
	C20.415979,359.340485 21.857101,357.700073 23.649048,356.029327 
	C23.999868,355.999023 24.023085,356.017548 24.023087,356.017548 
	C22.581999,357.656647 21.140905,359.295746 19.349377,360.967407 
	C18.998943,361.000031 18.974857,360.980927 18.974857,360.980927 
z"/>
<path fill="#1D222B" opacity="1.000000" stroke="none" 
	d="
M43.019447,337.018311 
	C41.911114,338.319214 40.802780,339.620148 39.357166,340.970276 
	C39.019886,341.019470 38.999748,340.999634 38.989506,340.989136 
	C40.085983,339.673187 41.192703,338.367737 42.649529,337.030884 
	C42.999630,336.999512 43.019451,337.018311 43.019447,337.018311 
z"/>
<path fill="#1E242E" opacity="1.000000" stroke="none" 
	d="
M57.015495,323.015991 
	C55.917194,324.330658 54.801781,325.627930 53.343121,326.962585 
	C52.999870,327.000000 52.992001,326.993988 52.992004,326.993988 
	C54.090729,325.680878 55.189453,324.367767 56.625908,323.009460 
	C56.963638,322.964264 56.998390,322.998566 57.015495,323.015991 
z"/>
<path fill="#1D222B" opacity="1.000000" stroke="none" 
	d="
M13.998295,365.998779 
	C15.101330,364.688171 16.204363,363.377563 17.653646,362.033325 
	C17.999897,361.999725 18.012878,362.009644 18.012882,362.009644 
	C16.902853,363.312927 15.792819,364.616211 14.341393,365.959747 
	C14.000000,366.000000 13.998293,365.998779 13.998295,365.998779 
z"/>
<path fill="#1D222B" opacity="1.000000" stroke="none" 
	d="
M14.000792,366.000610 
	C13.376404,367.185028 12.751224,368.368866 12.126043,369.552673 
	C11.709972,369.250824 11.293901,368.948975 10.877831,368.647156 
	C11.694736,367.789093 12.511640,366.931061 13.663418,366.035889 
	C13.998293,365.998779 14.000000,366.000000 14.000792,366.000610 
z"/>
<path fill="#1D222B" opacity="1.000000" stroke="none" 
	d="
M46.010201,334.027283 
	C45.235184,334.993713 44.460167,335.960114 43.352299,336.972412 
	C43.019451,337.018311 42.999630,336.999512 42.989685,336.989380 
	C43.791397,335.752319 44.603050,334.525360 45.709072,333.406952 
	C46.005699,333.686096 46.007950,333.856689 46.010201,334.027283 
z"/>
<path fill="#1D222B" opacity="1.000000" stroke="none" 
	d="
M28.008928,352.009338 
	C27.240349,352.987671 26.462084,353.956024 25.341530,354.962067 
	C24.999241,354.999756 24.979954,354.984619 24.979950,354.984619 
	C25.756567,354.012726 26.533188,353.040802 27.644424,352.024353 
	C27.979044,351.979797 27.999245,351.999359 28.008928,352.009338 
z"/>
<path fill="#1E242E" opacity="1.000000" stroke="none" 
	d="
M52.026382,328.019989 
	C51.243992,328.987671 50.461601,329.955383 49.339508,330.961548 
	C48.999809,331.000000 48.989704,330.992157 48.989704,330.992157 
	C49.761726,330.013336 50.533749,329.034515 51.653069,328.027435 
	C52.000362,327.999176 52.026382,328.019989 52.026382,328.019989 
z"/>
<path fill="#1F2A3D" opacity="1.000000" stroke="none" 
	d="
M202.565247,120.358849 
	C202.668655,119.943573 202.928543,119.691246 203.205582,119.459404 
	C203.213287,119.452965 203.404785,119.666130 203.510590,119.776894 
	C203.248428,120.026138 202.986267,120.275383 202.565247,120.358849 
z"/>
<path fill="#202732" opacity="1.000000" stroke="none" 
	d="
M124.011505,287.008850 
	C123.839462,287.562836 123.667435,288.116852 123.247101,288.835114 
	C122.998802,288.999390 122.978279,288.982758 122.978279,288.982758 
	C123.155930,288.433075 123.333580,287.883362 123.755783,287.166931 
	C124.000336,287.000214 124.011505,287.008850 124.011505,287.008850 
z"/>
<path fill="#202732" opacity="1.000000" stroke="none" 
	d="
M96.987762,313.990845 
	C97.455872,313.667053 97.923988,313.343262 98.695755,313.009277 
	C98.999405,312.999084 99.016342,313.012604 99.016335,313.012573 
	C98.545761,313.334106 98.075195,313.655609 97.302422,313.988708 
	C97.000214,314.000305 96.987755,313.990845 96.987762,313.990845 
z"/>
<path fill="#202732" opacity="1.000000" stroke="none" 
	d="
M96.013557,315.010254 
	C95.841476,315.564423 95.669388,316.118622 95.247635,316.836029 
	C94.997963,316.999268 94.970406,316.976776 94.970413,316.976776 
	C95.150414,316.428253 95.330414,315.879700 95.755417,315.165710 
	C96.000420,315.000275 96.013557,315.010254 96.013557,315.010254 
z"/>
<path fill="#202732" opacity="1.000000" stroke="none" 
	d="
M94.020142,318.015320 
	C93.549362,318.336975 93.078583,318.658661 92.304153,318.990540 
	C92.000496,319.000793 91.983627,318.987610 91.983627,318.987610 
	C92.452301,318.664581 92.920975,318.341583 93.694519,318.008698 
	C93.999382,317.998840 94.020142,318.015320 94.020142,318.015320 
z"/>
<path fill="#202732" opacity="1.000000" stroke="none" 
	d="
M165.009369,247.007019 
	C164.588425,247.130905 164.167480,247.254776 163.746536,247.378632 
	C164.006989,247.254761 164.267426,247.130905 164.763855,247.003418 
	C164.999847,246.999817 165.009369,247.007019 165.009369,247.007019 
z"/>
<path fill="#202732" opacity="1.000000" stroke="none" 
	d="
M91.026817,320.020782 
	C90.896225,320.432159 90.765625,320.843506 90.635025,321.254883 
	C90.620537,320.913513 90.606049,320.572174 90.796776,320.115967 
	C91.001991,320.001099 91.026810,320.020782 91.026817,320.020782 
z"/>
<path fill="#202732" opacity="1.000000" stroke="none" 
	d="
M160.029968,252.023346 
	C159.597031,252.145630 159.164078,252.267883 158.731125,252.390137 
	C158.989716,252.257721 159.248306,252.125320 159.753235,251.995422 
	C159.999557,251.997910 160.029968,252.023346 160.029968,252.023346 
z"/>
<path fill="#202732" opacity="1.000000" stroke="none" 
	d="
M108.961861,302.969696 
	C109.100540,302.557373 109.239220,302.145081 109.377899,301.732758 
	C109.392471,302.081299 109.407043,302.429810 109.209290,302.888855 
	C108.996956,302.999359 108.961861,302.969696 108.961861,302.969696 
z"/>
<path fill="#202732" opacity="1.000000" stroke="none" 
	d="
M113.034714,299.027374 
	C112.600533,299.148285 112.166359,299.269196 111.732178,299.390106 
	C111.988686,299.254883 112.245193,299.119659 112.750313,298.990417 
	C112.998932,298.996399 113.034714,299.027374 113.034714,299.027374 
z"/>
<path fill="#202732" opacity="1.000000" stroke="none" 
	d="
M165.991058,245.993210 
	C166.115631,245.581253 166.240204,245.169312 166.364777,244.757355 
	C166.376465,245.092712 166.388153,245.428070 166.199844,245.881653 
	C165.999847,245.999893 165.991058,245.993210 165.991058,245.993210 
z"/>
<path fill="#202732" opacity="1.000000" stroke="none" 
	d="
M118.985352,292.988708 
	C119.112183,292.576202 119.239006,292.163727 119.365837,291.751221 
	C119.378113,292.088898 119.390381,292.426544 119.201035,292.881897 
	C118.999420,292.999573 118.985352,292.988708 118.985352,292.988708 
z"/>
<path fill="#202732" opacity="1.000000" stroke="none" 
	d="
M127.029221,285.022675 
	C126.554817,285.341492 126.080414,285.660339 125.303146,285.989807 
	C125.000290,286.000397 124.988350,285.991302 124.988350,285.991302 
	C125.453423,285.665527 125.918503,285.339722 126.691483,285.005859 
	C126.999390,284.997772 127.029228,285.022675 127.029221,285.022675 
z"/>
<path fill="#202732" opacity="1.000000" stroke="none" 
	d="
M132.006104,280.004639 
	C131.584824,280.129761 131.163544,280.254913 130.742279,280.380066 
	C131.004196,280.255920 131.266113,280.131744 131.764023,280.003784 
	C132.000000,280.000000 132.006104,280.004639 132.006104,280.004639 
z"/>
<path fill="#202732" opacity="1.000000" stroke="none" 
	d="
M151.967682,259.975006 
	C152.104294,259.563782 152.240921,259.152527 152.377533,258.741272 
	C152.390457,259.086151 152.403412,259.431000 152.207230,259.887848 
	C151.998093,259.999817 151.967667,259.975006 151.967682,259.975006 
z"/>
<path fill="#202732" opacity="1.000000" stroke="none" 
	d="
M148.017487,263.013550 
	C147.841843,263.564667 147.666199,264.115753 147.245193,264.833435 
	C146.999817,265.000000 146.989365,264.992004 146.989349,264.992004 
	C147.162506,264.439026 147.335663,263.886017 147.754745,263.166748 
	C148.000687,263.000427 148.017487,263.013550 148.017487,263.013550 
z"/>
<path fill="#202732" opacity="1.000000" stroke="none" 
	d="
M146.010132,266.007538 
	C145.586945,266.130707 145.163742,266.253906 144.740555,266.377075 
	C145.002228,266.253265 145.263901,266.129456 145.762756,266.002747 
	C145.999908,265.999847 146.010132,266.007538 146.010132,266.007538 
z"/>
<path fill="#1D222B" opacity="1.000000" stroke="none" 
	d="
M25.006889,355.009125 
	C24.903526,355.332245 24.714710,355.588715 24.235588,355.902740 
	C24.023085,356.017548 23.999868,355.999023 23.990265,355.987030 
	C24.090361,355.659546 24.279539,355.402527 24.764076,355.094299 
	C24.979954,354.984619 24.999241,354.999756 25.006889,355.009125 
z"/>
<path fill="#202732" opacity="1.000000" stroke="none" 
	d="
M95.995544,314.994019 
	C96.104088,314.674622 96.294029,314.418121 96.774139,314.104614 
	C96.987755,313.990845 97.000214,314.000305 97.005348,314.006989 
	C96.909065,314.335205 96.722206,314.595367 96.231720,314.902222 
	C96.013557,315.010254 96.000420,315.000275 95.995544,314.994019 
z"/>
<path fill="#202732" opacity="1.000000" stroke="none" 
	d="
M156.045151,256.035767 
	C155.924194,256.047363 155.803253,256.058960 155.840698,256.032745 
	C155.999115,255.994919 156.045151,256.035767 156.045151,256.035767 
z"/>
<path fill="#202732" opacity="1.000000" stroke="none" 
	d="
M95.009262,317.012878 
	C94.905548,317.338165 94.714378,317.592712 94.233597,317.902679 
	C94.020142,318.015320 93.999382,317.998840 93.990723,317.987976 
	C94.082169,317.656219 94.267456,317.396057 94.754166,317.086670 
	C94.970406,316.976776 94.997963,316.999268 95.009262,317.012878 
z"/>
<path fill="#192333" opacity="1.000000" stroke="none" 
	d="
M232.011612,90.984772 
	C232.327744,91.092766 232.587234,91.279480 232.906616,91.757301 
	C233.023148,91.969681 232.998627,91.999710 232.983215,92.012375 
	C232.652084,91.912346 232.395370,91.720612 232.098572,91.225067 
	C231.999466,91.000267 232.011612,90.984772 232.011612,90.984772 
z"/>
<path fill="#1D222B" opacity="1.000000" stroke="none" 
	d="
M17.994858,361.993164 
	C18.098560,361.671875 18.285604,361.413910 18.762905,361.096832 
	C18.974857,360.980927 18.998943,361.000031 19.008869,361.012207 
	C18.899162,361.333588 18.706293,361.587097 18.226532,361.897278 
	C18.012878,362.009644 17.999897,361.999725 17.994858,361.993164 
z"/>
<path fill="#202732" opacity="1.000000" stroke="none" 
	d="
M90.992142,319.988953 
	C91.101028,319.667511 91.292992,319.413574 91.770905,319.101318 
	C91.983627,318.987610 92.000496,319.000793 92.007484,319.009766 
	C91.913803,319.339294 91.728851,319.600037 91.243210,319.910889 
	C91.026810,320.020782 91.001991,320.001099 90.992142,319.988953 
z"/>
<path fill="#1F2A3D" opacity="1.000000" stroke="none" 
	d="
M200.538544,118.541779 
	C200.484497,118.572777 200.592606,118.510773 200.538544,118.541779 
z"/>
<path fill="#202732" opacity="1.000000" stroke="none" 
	d="
M164.996002,246.994827 
	C165.093185,246.667511 165.280243,246.406967 165.772202,246.100708 
	C165.991058,245.993210 165.999847,245.999893 166.003067,246.004089 
	C165.895721,246.323685 165.706528,246.581345 165.224030,246.894135 
	C165.009369,247.007019 164.999847,246.999817 164.996002,246.994827 
z"/>
<path fill="#1E242E" opacity="1.000000" stroke="none" 
	d="
M46.994755,332.994873 
	C47.097168,332.673126 47.283409,332.410919 47.776711,332.103973 
	C47.999935,331.999634 48.015854,332.011963 48.015854,332.011963 
	C47.904095,332.329559 47.711655,332.586792 47.219231,332.891846 
	C46.999931,333.000000 46.994755,332.994873 46.994755,332.994873 
z"/>
<path fill="#1F2A3D" opacity="1.000000" stroke="none" 
	d="
M201.108185,125.266190 
	C201.133194,125.506264 200.857651,125.766655 200.299866,126.085144 
	C200.280960,125.857658 200.544296,125.572075 201.108185,125.266190 
z"/>
<path fill="#202732" opacity="1.000000" stroke="none" 
	d="
M86.965881,323.973419 
	C87.079453,323.957642 87.193024,323.941864 87.154045,323.965027 
	C87.001495,324.003998 86.965881,323.973419 86.965881,323.973419 
z"/>
<path fill="#202732" opacity="1.000000" stroke="none" 
	d="
M87.016739,324.021912 
	C86.924149,324.060455 86.816315,324.081116 86.837173,324.037598 
	C86.965881,323.973419 87.001495,324.003998 87.016739,324.021912 
z"/>
<path fill="#1E242E" opacity="1.000000" stroke="none" 
	d="
M51.989876,327.986206 
	C52.096428,327.661255 52.289639,327.407196 52.775517,327.102539 
	C52.992001,326.993988 52.999870,327.000000 53.002850,327.003662 
	C52.896397,327.321289 52.710766,327.580688 52.237656,327.902771 
	C52.026382,328.019989 52.000362,327.999176 51.989876,327.986206 
z"/>
<path fill="#202732" opacity="1.000000" stroke="none" 
	d="
M84.520683,327.543152 
	C84.465736,327.574982 84.575630,327.511353 84.520683,327.543152 
z"/>
<path fill="#202732" opacity="1.000000" stroke="none" 
	d="
M169.990723,241.992844 
	C170.081558,241.962296 170.172409,241.931747 170.131622,241.950592 
	C169.999985,242.000000 169.990723,241.992844 169.990723,241.992844 
z"/>
<path fill="#1E242E" opacity="1.000000" stroke="none" 
	d="
M46.222931,333.907166 
	C46.007950,333.856689 46.005699,333.686096 46.002182,333.259583 
	C46.000916,333.003662 46.497826,332.990570 46.746292,332.992737 
	C46.994755,332.994873 46.999931,333.000000 47.001762,333.002441 
	C46.889263,333.320038 46.699951,333.580780 46.222931,333.907166 
z"/>
<path fill="#192333" opacity="1.000000" stroke="none" 
	d="
M231.991547,91.006508 
	C231.875504,90.879166 231.767395,90.745590 231.659271,90.612007 
	C231.739151,90.654472 231.819046,90.696930 231.955261,90.862083 
	C232.011612,90.984772 231.999466,91.000267 231.991547,91.006508 
z"/>
<path fill="#202732" opacity="1.000000" stroke="none" 
	d="
M81.998100,328.997559 
	C82.089325,328.965912 82.182457,328.936707 82.140457,328.955750 
	C82.005333,329.003998 82.000000,329.000000 81.998100,328.997559 
z"/>
<path fill="#202732" opacity="1.000000" stroke="none" 
	d="
M170.003479,242.004517 
	C169.912628,242.037872 169.818298,242.066742 169.857346,242.044220 
	C169.990723,241.992844 169.999985,242.000000 170.003479,242.004517 
z"/>
<path fill="#1E242E" opacity="1.000000" stroke="none" 
	d="
M47.993706,331.991638 
	C48.097538,331.667511 48.287060,331.409821 48.772881,331.101379 
	C48.989704,330.992157 48.999809,331.000000 49.003677,331.004883 
	C48.898724,331.325562 48.710743,331.583740 48.229729,331.898132 
	C48.015854,332.011963 47.999935,331.999634 47.993706,331.991638 
z"/>
<path fill="#202732" opacity="1.000000" stroke="none" 
	d="
M125.005127,286.006653 
	C124.908379,286.334625 124.721207,286.594788 124.229980,286.901123 
	C124.011505,287.008850 124.000336,287.000214 123.996216,286.994873 
	C124.105087,286.676056 124.294800,286.419312 124.774788,286.105286 
	C124.988350,285.991302 125.000290,286.000397 125.005127,286.006653 
z"/>
<path fill="#202732" opacity="1.000000" stroke="none" 
	d="
M152.010681,260.014771 
	C151.906342,260.342102 151.713333,260.596771 151.221558,260.896545 
	C150.998856,260.999329 150.980164,260.984131 150.980164,260.984131 
	C151.078827,260.661285 151.264084,260.399780 151.751801,260.087311 
	C151.967667,259.975006 151.998093,259.999817 152.010681,260.014771 
z"/>
<path fill="#202732" opacity="1.000000" stroke="none" 
	d="
M151.006317,261.008362 
	C150.915039,261.041504 150.816269,261.065582 150.848846,261.036896 
	C150.980164,260.984131 150.998856,260.999329 151.006317,261.008362 
z"/>
<path fill="#202732" opacity="1.000000" stroke="none" 
	d="
M147.994324,262.992279 
	C148.085403,262.959564 148.182846,262.934967 148.148895,262.961975 
	C148.017487,263.013550 148.000687,263.000427 147.994324,262.992279 
z"/>
<path fill="#202732" opacity="1.000000" stroke="none" 
	d="
M147.003632,265.004883 
	C146.896164,265.324615 146.706726,265.581940 146.224640,265.894653 
	C146.010132,266.007538 145.999908,265.999847 145.995697,265.994385 
	C146.092438,265.666809 146.279327,265.406311 146.770752,265.099731 
	C146.989365,264.992004 146.999817,265.000000 147.003632,265.004883 
z"/>
<path fill="#202732" opacity="1.000000" stroke="none" 
	d="
M141.971848,269.977600 
	C142.074966,269.952881 142.178085,269.928162 142.139587,269.951233 
	C141.997955,269.998993 141.971848,269.977600 141.971848,269.977600 
z"/>
<path fill="#202732" opacity="1.000000" stroke="none" 
	d="
M142.008636,270.011841 
	C141.914566,270.045563 141.809799,270.066437 141.838440,270.032471 
	C141.971848,269.977600 141.997955,269.998993 142.008636,270.011841 
z"/>
<path fill="#202732" opacity="1.000000" stroke="none" 
	d="
M136.981995,274.985901 
	C137.080185,274.957184 137.178375,274.928467 137.137848,274.949646 
	C136.999130,274.999542 136.981995,274.985901 136.981995,274.985901 
z"/>
<path fill="#202732" opacity="1.000000" stroke="none" 
	d="
M137.005859,275.007690 
	C136.914597,275.040680 136.816635,275.065460 136.850327,275.038086 
	C136.981995,274.985901 136.999130,274.999542 137.005859,275.007690 
z"/>
<path fill="#202732" opacity="1.000000" stroke="none" 
	d="
M133.978561,276.983337 
	C134.082260,276.962128 134.185974,276.940918 134.145370,276.960754 
	C134.001068,277.001770 133.978561,276.983337 133.978561,276.983337 
z"/>
<path fill="#202732" opacity="1.000000" stroke="none" 
	d="
M155.978821,255.971802 
	C156.073318,255.932983 156.188095,255.917282 156.174011,255.968674 
	C156.045151,256.035767 155.999115,255.994919 155.978821,255.971802 
z"/>
<path fill="#202732" opacity="1.000000" stroke="none" 
	d="
M134.010376,277.013245 
	C133.920441,277.051117 133.821213,277.077515 133.850281,277.043640 
	C133.978561,276.983337 134.001068,277.001770 134.010376,277.013245 
z"/>
<path fill="#202732" opacity="1.000000" stroke="none" 
	d="
M131.997421,279.996765 
	C132.083054,279.960693 132.171265,279.927887 132.132782,279.949860 
	C132.006104,280.004639 132.000000,280.000000 131.997421,279.996765 
z"/>
<path fill="#202732" opacity="1.000000" stroke="none" 
	d="
M126.986877,284.982819 
	C127.078476,284.945312 127.182579,284.922791 127.157959,284.961456 
	C127.029228,285.022675 126.999390,284.997772 126.986877,284.982819 
z"/>
<path fill="#202732" opacity="1.000000" stroke="none" 
	d="
M98.992416,312.990356 
	C99.081543,312.953064 99.177658,312.924530 99.145058,312.954285 
	C99.016342,313.012604 98.999405,312.999084 98.992416,312.990356 
z"/>
<path fill="#202732" opacity="1.000000" stroke="none" 
	d="
M123.006897,289.009460 
	C122.914932,289.042725 122.814873,289.065948 122.846550,289.035950 
	C122.978279,288.982758 122.998802,288.999390 123.006897,289.009460 
z"/>
<path fill="#202732" opacity="1.000000" stroke="none" 
	d="
M117.982353,293.986328 
	C118.082680,293.662292 118.270569,293.401276 118.765686,293.096008 
	C118.985352,292.988708 118.999420,292.999573 119.004738,293.006500 
	C118.897545,293.328125 118.708000,293.586273 118.220352,293.893738 
	C117.999268,293.999573 117.982353,293.986328 117.982353,293.986328 
z"/>
<path fill="#202732" opacity="1.000000" stroke="none" 
	d="
M118.005753,294.007721 
	C117.914101,294.040863 117.815964,294.065857 117.850090,294.038574 
	C117.982353,293.986328 117.999268,293.999573 118.005753,294.007721 
z"/>
<path fill="#202732" opacity="1.000000" stroke="none" 
	d="
M114.991745,295.993622 
	C115.085281,295.966217 115.178810,295.938843 115.136238,295.955811 
	C115.000137,296.000122 114.991753,295.993622 114.991745,295.993622 
z"/>
<path fill="#202732" opacity="1.000000" stroke="none" 
	d="
M115.003670,296.004639 
	C114.917053,296.041412 114.826904,296.073669 114.864250,296.049774 
	C114.991753,295.993622 115.000137,296.000122 115.003670,296.004639 
z"/>
<path fill="#202732" opacity="1.000000" stroke="none" 
	d="
M112.983574,298.978394 
	C113.076233,298.940033 113.184250,298.919739 113.163498,298.963409 
	C113.034714,299.027374 112.998932,298.996399 112.983574,298.978394 
z"/>
<path fill="#202732" opacity="1.000000" stroke="none" 
	d="
M109.011948,303.016724 
	C108.917686,303.051788 108.808434,303.069519 108.830521,303.028503 
	C108.961861,302.969696 108.996956,302.999359 109.011948,303.016724 
z"/>
<path fill="#202732" opacity="1.000000" stroke="none" 
	d="
M159.986786,251.982666 
	C160.078735,251.945282 160.183456,251.923126 160.159058,251.962158 
	C160.029968,252.023346 159.999557,251.997910 159.986786,251.982666 
z"/>
<path fill="#202732" opacity="1.000000" stroke="none" 
	d="
M105.458084,305.543640 
	C105.425377,305.488129 105.490784,305.599152 105.458084,305.543640 
z"/>
<path fill="#202732" opacity="1.000000" stroke="none" 
	d="
M103.983124,307.986572 
	C104.080261,307.957367 104.177406,307.928192 104.136848,307.949219 
	C103.999153,307.999451 103.983131,307.986572 103.983124,307.986572 
z"/>
<path fill="#202732" opacity="1.000000" stroke="none" 
	d="
M104.005432,308.007050 
	C103.914482,308.039795 103.817253,308.064911 103.851578,308.038300 
	C103.983131,307.986572 103.999153,307.999451 104.005432,308.007050 
z"/>
<path fill="#202732" opacity="1.000000" stroke="none" 
	d="
M100.982018,309.986237 
	C101.083008,309.963257 101.183998,309.940247 101.142891,309.959229 
	C101.000793,310.001221 100.982018,309.986237 100.982018,309.986237 
z"/>
<path fill="#202732" opacity="1.000000" stroke="none" 
	d="
M101.008514,310.010864 
	C100.919296,310.048401 100.822350,310.076324 100.853714,310.045227 
	C100.982018,309.986237 101.000793,310.001221 101.008514,310.010864 
z"/>
<path fill="#0D1219" opacity="1.000000" stroke="none" 
	d="
M2522.201172,236.365356 
	C2516.579346,237.773819 2511.298340,239.975571 2505.986572,240.052917 
	C2480.669189,240.421631 2455.343262,240.147522 2430.021240,240.282211 
	C2426.336426,240.301804 2425.112305,239.253662 2425.135010,235.485107 
	C2425.279297,211.662537 2425.302734,187.837921 2425.119385,164.015900 
	C2425.086914,159.802032 2426.764893,159.086761 2430.443848,159.100220 
	C2454.600098,159.188538 2478.769531,159.570297 2502.909912,158.923508 
	C2526.176758,158.300140 2537.639404,172.943375 2539.808350,193.163666 
	C2541.169189,205.849319 2539.296875,218.204605 2531.036621,228.611542 
	C2528.711914,231.540375 2525.391357,233.678741 2522.201172,236.365356 
z"/>
<path fill="#0D1118" opacity="1.000000" stroke="none" 
	d="
M1675.985840,197.170258 
	C1677.000488,202.793335 1678.707520,208.015320 1678.740479,213.247787 
	C1678.974365,250.553146 1679.196289,287.864899 1678.716675,325.165588 
	C1678.502808,341.798218 1672.092041,356.309235 1659.182983,367.398895 
	C1651.401855,374.083374 1642.236084,378.039062 1632.169189,379.409637 
	C1613.169678,381.996307 1595.198486,379.671906 1580.255371,366.239014 
	C1568.500366,355.671783 1562.297852,342.008057 1562.081665,326.502716 
	C1561.552246,288.536133 1561.475952,250.551178 1562.028687,212.585434 
	C1562.472656,182.090256 1586.297974,159.052185 1616.798706,158.161804 
	C1632.261108,157.710434 1646.535034,160.992096 1658.852661,170.874252 
	C1667.330200,177.675644 1672.418457,186.693405 1675.985840,197.170258 
z"/>
<path fill="#0D1118" opacity="1.000000" stroke="none" 
	d="
M2168.030273,380.250671 
	C2133.145508,380.039581 2111.218262,354.934814 2111.017090,323.100952 
	C2110.791992,287.441010 2110.657227,251.775528 2111.025146,216.118057 
	C2111.492676,170.822327 2149.988525,150.580780 2187.161621,160.540558 
	C2211.626953,167.095459 2227.604248,187.683517 2227.851562,213.004868 
	C2228.204590,249.163086 2228.014404,285.326752 2228.031982,321.488068 
	C2228.048584,355.493713 2205.194092,381.184021 2168.030273,380.250671 
z"/>
<path fill="#10161F" opacity="1.000000" stroke="none" 
	d="
M229.190643,202.047272 
	C238.659134,197.589310 247.572098,200.395096 250.686676,208.534927 
	C254.299271,217.976273 250.272552,226.631348 240.936127,229.492905 
	C235.550217,231.143677 228.502655,228.568359 225.140244,223.720840 
	C221.229080,218.082108 221.095688,210.772491 224.945648,206.047882 
	C226.091095,204.642227 227.549149,203.491318 229.190643,202.047272 
z"/>
<path fill="#0F141B" opacity="1.000000" stroke="none" 
	d="
M62.795227,357.242065 
	C79.957596,354.917419 88.160194,360.369141 94.031418,372.259827 
	C99.124199,382.573883 96.015015,394.778137 87.098602,402.932556 
	C79.701607,409.697449 66.582153,410.907227 57.232929,405.897766 
	C47.704414,400.792267 43.282982,392.169128 43.515209,382.174530 
	C43.797173,370.039581 50.671650,361.508301 62.795227,357.242065 
z"/>
</svg>